# xmcd
#
# Track frame offsets:
#	150
#	14162
#	29055
#	43822
#	63922
#	79752
#	90915
#	106060
#	121137
#	135235
#
# Disc length: 2115 seconds
#
# Revision: 4
# Processed by: cddbd v1.5.1PL0 Copyright (c) Steve Scherf et al.
# Submitted via: MusicWizard 7.1.1b
#
DISCID=7808410a
DTITLE=Rodney Crowell - Diamonds And Dirt
DYEAR=1988
DGENRE=Country
TTITLE0=Crazy Baby
TTITLE1=I Couldn't Leave You If I Tried
TTITLE2=She's Crazy For Leavin'
TTITLE3=After All This Time
TTITLE4=I Know You're Married
TTITLE5=Above And Beyond
TTITLE6=It's Such A Small World
TTITLE7=I Didn't Know I Could Lose You
TTITLE8=Brand New Rag
TTITLE9=The Last Waltz
EXTD=Arrangement: Tony Brown and Rodney Crowell\n(c)1988 Columbia Records\nKatalog: Columbia FC 4407
EXTD=6\nupc  0746444076200\n\n
EXTT0=
EXTT1=
EXTT2=
EXTT3=
EXTT4=
EXTT5=
EXTT6=
EXTT7=
EXTT8=
EXTT9=
PLAYORDER=
